<mxfile host="app.diagrams.net" modified="2021-12-12T16:07:02.943Z" agent="5.0 (Macintosh; Intel Mac OS X 10_15_7) AppleWebKit/537.36 (KHTML, like Gecko) Chrome/96.0.4664.93 Safari/537.36" etag="NRiqYAWsxjlPJYvY371K" version="15.9.1" type="github">
  <diagram id="WP5HtbcuROSeyJWOQ-Aa" name="第 1 页">
    <mxGraphModel dx="946" dy="646" grid="1" gridSize="10" guides="1" tooltips="1" connect="1" arrows="1" fold="1" page="1" pageScale="1" pageWidth="1169" pageHeight="827" math="0" shadow="0">
      <root>
        <mxCell id="0" />
        <mxCell id="1" parent="0" />
        <mxCell id="VfmRdSo4ih5aXVGp20wE-47" value="" style="group" vertex="1" connectable="0" parent="1">
          <mxGeometry x="170" y="70" width="220" height="30" as="geometry" />
        </mxCell>
        <mxCell id="VfmRdSo4ih5aXVGp20wE-44" value="" style="group" vertex="1" connectable="0" parent="VfmRdSo4ih5aXVGp20wE-47">
          <mxGeometry width="180" height="30" as="geometry" />
        </mxCell>
        <mxCell id="VfmRdSo4ih5aXVGp20wE-36" value="" style="rounded=0;whiteSpace=wrap;html=1;sketch=1;fillColor=#ffe6cc;strokeColor=#d79b00;" vertex="1" parent="VfmRdSo4ih5aXVGp20wE-44">
          <mxGeometry width="30" height="30" as="geometry" />
        </mxCell>
        <mxCell id="VfmRdSo4ih5aXVGp20wE-39" value="" style="rounded=0;whiteSpace=wrap;html=1;sketch=1;fillColor=#ffe6cc;strokeColor=#d79b00;" vertex="1" parent="VfmRdSo4ih5aXVGp20wE-44">
          <mxGeometry x="30" width="30" height="30" as="geometry" />
        </mxCell>
        <mxCell id="VfmRdSo4ih5aXVGp20wE-40" value="" style="rounded=0;whiteSpace=wrap;html=1;sketch=1;fillColor=#ffe6cc;strokeColor=#d79b00;" vertex="1" parent="VfmRdSo4ih5aXVGp20wE-44">
          <mxGeometry x="90" width="30" height="30" as="geometry" />
        </mxCell>
        <mxCell id="VfmRdSo4ih5aXVGp20wE-41" value="" style="rounded=0;whiteSpace=wrap;html=1;sketch=1;fillColor=#ffe6cc;strokeColor=#d79b00;" vertex="1" parent="VfmRdSo4ih5aXVGp20wE-44">
          <mxGeometry x="60" width="30" height="30" as="geometry" />
        </mxCell>
        <mxCell id="VfmRdSo4ih5aXVGp20wE-42" value="..." style="rounded=0;whiteSpace=wrap;html=1;sketch=1;fillColor=none;strokeColor=none;" vertex="1" parent="VfmRdSo4ih5aXVGp20wE-44">
          <mxGeometry x="120" width="30" height="30" as="geometry" />
        </mxCell>
        <mxCell id="VfmRdSo4ih5aXVGp20wE-43" value="" style="rounded=0;whiteSpace=wrap;html=1;sketch=1;fillColor=#ffe6cc;strokeColor=#d79b00;" vertex="1" parent="VfmRdSo4ih5aXVGp20wE-44">
          <mxGeometry x="150" width="30" height="30" as="geometry" />
        </mxCell>
        <mxCell id="VfmRdSo4ih5aXVGp20wE-46" value="" style="endArrow=classic;html=1;edgeStyle=orthogonalEdgeStyle;curved=1;" edge="1" parent="VfmRdSo4ih5aXVGp20wE-47">
          <mxGeometry width="50" height="50" relative="1" as="geometry">
            <mxPoint x="210" as="sourcePoint" />
            <mxPoint x="220" y="10" as="targetPoint" />
            <Array as="points">
              <mxPoint x="190" />
              <mxPoint x="190" y="30" />
              <mxPoint x="220" y="30" />
            </Array>
          </mxGeometry>
        </mxCell>
        <mxCell id="VfmRdSo4ih5aXVGp20wE-48" value="" style="group" vertex="1" connectable="0" parent="1">
          <mxGeometry x="170" y="120" width="220" height="30" as="geometry" />
        </mxCell>
        <mxCell id="VfmRdSo4ih5aXVGp20wE-49" value="" style="group" vertex="1" connectable="0" parent="VfmRdSo4ih5aXVGp20wE-48">
          <mxGeometry width="180" height="30" as="geometry" />
        </mxCell>
        <mxCell id="VfmRdSo4ih5aXVGp20wE-50" value="" style="rounded=0;whiteSpace=wrap;html=1;sketch=1;fillColor=#ffe6cc;strokeColor=#d79b00;" vertex="1" parent="VfmRdSo4ih5aXVGp20wE-49">
          <mxGeometry width="30" height="30" as="geometry" />
        </mxCell>
        <mxCell id="VfmRdSo4ih5aXVGp20wE-51" value="" style="rounded=0;whiteSpace=wrap;html=1;sketch=1;fillColor=#ffe6cc;strokeColor=#d79b00;" vertex="1" parent="VfmRdSo4ih5aXVGp20wE-49">
          <mxGeometry x="30" width="30" height="30" as="geometry" />
        </mxCell>
        <mxCell id="VfmRdSo4ih5aXVGp20wE-52" value="" style="rounded=0;whiteSpace=wrap;html=1;sketch=1;fillColor=#ffe6cc;strokeColor=#d79b00;" vertex="1" parent="VfmRdSo4ih5aXVGp20wE-49">
          <mxGeometry x="90" width="30" height="30" as="geometry" />
        </mxCell>
        <mxCell id="VfmRdSo4ih5aXVGp20wE-53" value="" style="rounded=0;whiteSpace=wrap;html=1;sketch=1;fillColor=#ffe6cc;strokeColor=#d79b00;" vertex="1" parent="VfmRdSo4ih5aXVGp20wE-49">
          <mxGeometry x="60" width="30" height="30" as="geometry" />
        </mxCell>
        <mxCell id="VfmRdSo4ih5aXVGp20wE-54" value="..." style="rounded=0;whiteSpace=wrap;html=1;sketch=1;fillColor=none;strokeColor=none;" vertex="1" parent="VfmRdSo4ih5aXVGp20wE-49">
          <mxGeometry x="120" width="30" height="30" as="geometry" />
        </mxCell>
        <mxCell id="VfmRdSo4ih5aXVGp20wE-55" value="" style="rounded=0;whiteSpace=wrap;html=1;sketch=1;fillColor=#ffe6cc;strokeColor=#d79b00;" vertex="1" parent="VfmRdSo4ih5aXVGp20wE-49">
          <mxGeometry x="150" width="30" height="30" as="geometry" />
        </mxCell>
        <mxCell id="VfmRdSo4ih5aXVGp20wE-56" value="" style="endArrow=classic;html=1;edgeStyle=orthogonalEdgeStyle;curved=1;" edge="1" parent="VfmRdSo4ih5aXVGp20wE-48">
          <mxGeometry width="50" height="50" relative="1" as="geometry">
            <mxPoint x="210" as="sourcePoint" />
            <mxPoint x="220" y="10" as="targetPoint" />
            <Array as="points">
              <mxPoint x="190" />
              <mxPoint x="190" y="30" />
              <mxPoint x="220" y="30" />
            </Array>
          </mxGeometry>
        </mxCell>
        <mxCell id="VfmRdSo4ih5aXVGp20wE-57" value="active" style="text;html=1;align=center;verticalAlign=middle;resizable=0;points=[];autosize=1;strokeColor=none;fillColor=none;" vertex="1" parent="1">
          <mxGeometry x="120" y="75" width="50" height="20" as="geometry" />
        </mxCell>
        <mxCell id="VfmRdSo4ih5aXVGp20wE-58" value="doing" style="text;html=1;align=center;verticalAlign=middle;resizable=0;points=[];autosize=1;strokeColor=none;fillColor=none;" vertex="1" parent="1">
          <mxGeometry x="125" y="125" width="40" height="20" as="geometry" />
        </mxCell>
        <mxCell id="VfmRdSo4ih5aXVGp20wE-59" value="排行榜KOL" style="rounded=0;whiteSpace=wrap;html=1;sketch=1;fillColor=none;" vertex="1" parent="1">
          <mxGeometry x="80" y="70" width="45" height="80" as="geometry" />
        </mxCell>
        <mxCell id="VfmRdSo4ih5aXVGp20wE-61" value="" style="group" vertex="1" connectable="0" parent="1">
          <mxGeometry x="170" y="180" width="180" height="30" as="geometry" />
        </mxCell>
        <mxCell id="VfmRdSo4ih5aXVGp20wE-62" value="" style="rounded=0;whiteSpace=wrap;html=1;sketch=1;fillColor=#dae8fc;strokeColor=#6c8ebf;" vertex="1" parent="VfmRdSo4ih5aXVGp20wE-61">
          <mxGeometry width="30" height="30" as="geometry" />
        </mxCell>
        <mxCell id="VfmRdSo4ih5aXVGp20wE-63" value="" style="rounded=0;whiteSpace=wrap;html=1;sketch=1;fillColor=#dae8fc;strokeColor=#6c8ebf;" vertex="1" parent="VfmRdSo4ih5aXVGp20wE-61">
          <mxGeometry x="30" width="30" height="30" as="geometry" />
        </mxCell>
        <mxCell id="VfmRdSo4ih5aXVGp20wE-64" value="" style="rounded=0;whiteSpace=wrap;html=1;sketch=1;fillColor=#dae8fc;strokeColor=#6c8ebf;" vertex="1" parent="VfmRdSo4ih5aXVGp20wE-61">
          <mxGeometry x="90" width="30" height="30" as="geometry" />
        </mxCell>
        <mxCell id="VfmRdSo4ih5aXVGp20wE-65" value="" style="rounded=0;whiteSpace=wrap;html=1;sketch=1;fillColor=#dae8fc;strokeColor=#6c8ebf;" vertex="1" parent="VfmRdSo4ih5aXVGp20wE-61">
          <mxGeometry x="60" width="30" height="30" as="geometry" />
        </mxCell>
        <mxCell id="VfmRdSo4ih5aXVGp20wE-66" value="..." style="rounded=0;whiteSpace=wrap;html=1;sketch=1;fillColor=none;strokeColor=none;" vertex="1" parent="VfmRdSo4ih5aXVGp20wE-61">
          <mxGeometry x="120" width="30" height="30" as="geometry" />
        </mxCell>
        <mxCell id="VfmRdSo4ih5aXVGp20wE-67" value="" style="rounded=0;whiteSpace=wrap;html=1;sketch=1;fillColor=#dae8fc;strokeColor=#6c8ebf;" vertex="1" parent="VfmRdSo4ih5aXVGp20wE-61">
          <mxGeometry x="150" width="30" height="30" as="geometry" />
        </mxCell>
        <mxCell id="VfmRdSo4ih5aXVGp20wE-68" value="" style="endArrow=classic;html=1;edgeStyle=orthogonalEdgeStyle;curved=1;" edge="1" parent="1">
          <mxGeometry width="50" height="50" relative="1" as="geometry">
            <mxPoint x="380" y="180" as="sourcePoint" />
            <mxPoint x="390" y="190" as="targetPoint" />
            <Array as="points">
              <mxPoint x="360" y="180" />
              <mxPoint x="360" y="210" />
              <mxPoint x="390" y="210" />
            </Array>
          </mxGeometry>
        </mxCell>
        <mxCell id="VfmRdSo4ih5aXVGp20wE-70" value="" style="group" vertex="1" connectable="0" parent="1">
          <mxGeometry x="170" y="230" width="180" height="30" as="geometry" />
        </mxCell>
        <mxCell id="VfmRdSo4ih5aXVGp20wE-71" value="" style="rounded=0;whiteSpace=wrap;html=1;sketch=1;fillColor=#dae8fc;strokeColor=#6c8ebf;" vertex="1" parent="VfmRdSo4ih5aXVGp20wE-70">
          <mxGeometry width="30" height="30" as="geometry" />
        </mxCell>
        <mxCell id="VfmRdSo4ih5aXVGp20wE-72" value="" style="rounded=0;whiteSpace=wrap;html=1;sketch=1;fillColor=#dae8fc;strokeColor=#6c8ebf;" vertex="1" parent="VfmRdSo4ih5aXVGp20wE-70">
          <mxGeometry x="30" width="30" height="30" as="geometry" />
        </mxCell>
        <mxCell id="VfmRdSo4ih5aXVGp20wE-73" value="" style="rounded=0;whiteSpace=wrap;html=1;sketch=1;fillColor=#dae8fc;strokeColor=#6c8ebf;" vertex="1" parent="VfmRdSo4ih5aXVGp20wE-70">
          <mxGeometry x="90" width="30" height="30" as="geometry" />
        </mxCell>
        <mxCell id="VfmRdSo4ih5aXVGp20wE-74" value="" style="rounded=0;whiteSpace=wrap;html=1;sketch=1;fillColor=#dae8fc;strokeColor=#6c8ebf;" vertex="1" parent="VfmRdSo4ih5aXVGp20wE-70">
          <mxGeometry x="60" width="30" height="30" as="geometry" />
        </mxCell>
        <mxCell id="VfmRdSo4ih5aXVGp20wE-75" value="..." style="rounded=0;whiteSpace=wrap;html=1;sketch=1;fillColor=none;strokeColor=none;" vertex="1" parent="VfmRdSo4ih5aXVGp20wE-70">
          <mxGeometry x="120" width="30" height="30" as="geometry" />
        </mxCell>
        <mxCell id="VfmRdSo4ih5aXVGp20wE-76" value="" style="rounded=0;whiteSpace=wrap;html=1;sketch=1;fillColor=#dae8fc;strokeColor=#6c8ebf;" vertex="1" parent="VfmRdSo4ih5aXVGp20wE-70">
          <mxGeometry x="150" width="30" height="30" as="geometry" />
        </mxCell>
        <mxCell id="VfmRdSo4ih5aXVGp20wE-77" value="" style="endArrow=classic;html=1;edgeStyle=orthogonalEdgeStyle;curved=1;" edge="1" parent="1">
          <mxGeometry width="50" height="50" relative="1" as="geometry">
            <mxPoint x="380" y="230" as="sourcePoint" />
            <mxPoint x="390" y="240" as="targetPoint" />
            <Array as="points">
              <mxPoint x="360" y="230" />
              <mxPoint x="360" y="260" />
              <mxPoint x="390" y="260" />
            </Array>
          </mxGeometry>
        </mxCell>
        <mxCell id="VfmRdSo4ih5aXVGp20wE-79" value="" style="group" vertex="1" connectable="0" parent="1">
          <mxGeometry x="170" y="280" width="180" height="30" as="geometry" />
        </mxCell>
        <mxCell id="VfmRdSo4ih5aXVGp20wE-80" value="" style="rounded=0;whiteSpace=wrap;html=1;sketch=1;fillColor=#dae8fc;strokeColor=#6c8ebf;" vertex="1" parent="VfmRdSo4ih5aXVGp20wE-79">
          <mxGeometry width="30" height="30" as="geometry" />
        </mxCell>
        <mxCell id="VfmRdSo4ih5aXVGp20wE-81" value="" style="rounded=0;whiteSpace=wrap;html=1;sketch=1;fillColor=#dae8fc;strokeColor=#6c8ebf;" vertex="1" parent="VfmRdSo4ih5aXVGp20wE-79">
          <mxGeometry x="30" width="30" height="30" as="geometry" />
        </mxCell>
        <mxCell id="VfmRdSo4ih5aXVGp20wE-82" value="" style="rounded=0;whiteSpace=wrap;html=1;sketch=1;fillColor=#dae8fc;strokeColor=#6c8ebf;" vertex="1" parent="VfmRdSo4ih5aXVGp20wE-79">
          <mxGeometry x="90" width="30" height="30" as="geometry" />
        </mxCell>
        <mxCell id="VfmRdSo4ih5aXVGp20wE-83" value="" style="rounded=0;whiteSpace=wrap;html=1;sketch=1;fillColor=#dae8fc;strokeColor=#6c8ebf;" vertex="1" parent="VfmRdSo4ih5aXVGp20wE-79">
          <mxGeometry x="60" width="30" height="30" as="geometry" />
        </mxCell>
        <mxCell id="VfmRdSo4ih5aXVGp20wE-84" value="..." style="rounded=0;whiteSpace=wrap;html=1;sketch=1;fillColor=none;strokeColor=none;" vertex="1" parent="VfmRdSo4ih5aXVGp20wE-79">
          <mxGeometry x="120" width="30" height="30" as="geometry" />
        </mxCell>
        <mxCell id="VfmRdSo4ih5aXVGp20wE-85" value="" style="rounded=0;whiteSpace=wrap;html=1;sketch=1;fillColor=#dae8fc;strokeColor=#6c8ebf;" vertex="1" parent="VfmRdSo4ih5aXVGp20wE-79">
          <mxGeometry x="150" width="30" height="30" as="geometry" />
        </mxCell>
        <mxCell id="VfmRdSo4ih5aXVGp20wE-86" value="" style="endArrow=classic;html=1;edgeStyle=orthogonalEdgeStyle;curved=1;" edge="1" parent="1">
          <mxGeometry width="50" height="50" relative="1" as="geometry">
            <mxPoint x="380" y="280" as="sourcePoint" />
            <mxPoint x="390" y="290" as="targetPoint" />
            <Array as="points">
              <mxPoint x="360" y="280" />
              <mxPoint x="360" y="310" />
              <mxPoint x="390" y="310" />
            </Array>
          </mxGeometry>
        </mxCell>
        <mxCell id="VfmRdSo4ih5aXVGp20wE-87" value="active" style="text;html=1;align=center;verticalAlign=middle;resizable=0;points=[];autosize=1;strokeColor=none;fillColor=none;" vertex="1" parent="1">
          <mxGeometry x="120" y="185" width="50" height="20" as="geometry" />
        </mxCell>
        <mxCell id="VfmRdSo4ih5aXVGp20wE-88" value="doing" style="text;html=1;align=center;verticalAlign=middle;resizable=0;points=[];autosize=1;strokeColor=none;fillColor=none;" vertex="1" parent="1">
          <mxGeometry x="125" y="285" width="40" height="20" as="geometry" />
        </mxCell>
        <mxCell id="VfmRdSo4ih5aXVGp20wE-89" value="waiting" style="text;html=1;align=center;verticalAlign=middle;resizable=0;points=[];autosize=1;strokeColor=none;fillColor=none;" vertex="1" parent="1">
          <mxGeometry x="120" y="235" width="50" height="20" as="geometry" />
        </mxCell>
        <mxCell id="VfmRdSo4ih5aXVGp20wE-90" value="前测" style="rounded=0;whiteSpace=wrap;html=1;sketch=1;fillColor=none;" vertex="1" parent="1">
          <mxGeometry x="75" y="180" width="45" height="130" as="geometry" />
        </mxCell>
        <mxCell id="VfmRdSo4ih5aXVGp20wE-91" value="" style="group" vertex="1" connectable="0" parent="1">
          <mxGeometry x="170" y="340" width="180" height="30" as="geometry" />
        </mxCell>
        <mxCell id="VfmRdSo4ih5aXVGp20wE-92" value="" style="rounded=0;whiteSpace=wrap;html=1;sketch=1;fillColor=#d5e8d4;strokeColor=#82b366;" vertex="1" parent="VfmRdSo4ih5aXVGp20wE-91">
          <mxGeometry width="30" height="30" as="geometry" />
        </mxCell>
        <mxCell id="VfmRdSo4ih5aXVGp20wE-93" value="" style="rounded=0;whiteSpace=wrap;html=1;sketch=1;fillColor=#d5e8d4;strokeColor=#82b366;" vertex="1" parent="VfmRdSo4ih5aXVGp20wE-91">
          <mxGeometry x="30" width="30" height="30" as="geometry" />
        </mxCell>
        <mxCell id="VfmRdSo4ih5aXVGp20wE-94" value="" style="rounded=0;whiteSpace=wrap;html=1;sketch=1;fillColor=#d5e8d4;strokeColor=#82b366;" vertex="1" parent="VfmRdSo4ih5aXVGp20wE-91">
          <mxGeometry x="90" width="30" height="30" as="geometry" />
        </mxCell>
        <mxCell id="VfmRdSo4ih5aXVGp20wE-95" value="" style="rounded=0;whiteSpace=wrap;html=1;sketch=1;fillColor=#d5e8d4;strokeColor=#82b366;" vertex="1" parent="VfmRdSo4ih5aXVGp20wE-91">
          <mxGeometry x="60" width="30" height="30" as="geometry" />
        </mxCell>
        <mxCell id="VfmRdSo4ih5aXVGp20wE-96" value="..." style="rounded=0;whiteSpace=wrap;html=1;sketch=1;fillColor=none;strokeColor=none;" vertex="1" parent="VfmRdSo4ih5aXVGp20wE-91">
          <mxGeometry x="120" width="30" height="30" as="geometry" />
        </mxCell>
        <mxCell id="VfmRdSo4ih5aXVGp20wE-97" value="" style="rounded=0;whiteSpace=wrap;html=1;sketch=1;fillColor=#d5e8d4;strokeColor=#82b366;" vertex="1" parent="VfmRdSo4ih5aXVGp20wE-91">
          <mxGeometry x="150" width="30" height="30" as="geometry" />
        </mxCell>
        <mxCell id="VfmRdSo4ih5aXVGp20wE-98" value="" style="endArrow=classic;html=1;edgeStyle=orthogonalEdgeStyle;curved=1;" edge="1" parent="1">
          <mxGeometry width="50" height="50" relative="1" as="geometry">
            <mxPoint x="380" y="340" as="sourcePoint" />
            <mxPoint x="390" y="350" as="targetPoint" />
            <Array as="points">
              <mxPoint x="360" y="340" />
              <mxPoint x="360" y="370" />
              <mxPoint x="390" y="370" />
            </Array>
          </mxGeometry>
        </mxCell>
        <mxCell id="VfmRdSo4ih5aXVGp20wE-99" value="" style="group" vertex="1" connectable="0" parent="1">
          <mxGeometry x="170" y="384" width="180" height="30" as="geometry" />
        </mxCell>
        <mxCell id="VfmRdSo4ih5aXVGp20wE-100" value="" style="rounded=0;whiteSpace=wrap;html=1;sketch=1;fillColor=#d5e8d4;strokeColor=#82b366;" vertex="1" parent="VfmRdSo4ih5aXVGp20wE-99">
          <mxGeometry width="30" height="30" as="geometry" />
        </mxCell>
        <mxCell id="VfmRdSo4ih5aXVGp20wE-101" value="" style="rounded=0;whiteSpace=wrap;html=1;sketch=1;fillColor=#d5e8d4;strokeColor=#82b366;" vertex="1" parent="VfmRdSo4ih5aXVGp20wE-99">
          <mxGeometry x="30" width="30" height="30" as="geometry" />
        </mxCell>
        <mxCell id="VfmRdSo4ih5aXVGp20wE-102" value="" style="rounded=0;whiteSpace=wrap;html=1;sketch=1;fillColor=#d5e8d4;strokeColor=#82b366;" vertex="1" parent="VfmRdSo4ih5aXVGp20wE-99">
          <mxGeometry x="90" width="30" height="30" as="geometry" />
        </mxCell>
        <mxCell id="VfmRdSo4ih5aXVGp20wE-103" value="" style="rounded=0;whiteSpace=wrap;html=1;sketch=1;fillColor=#d5e8d4;strokeColor=#82b366;" vertex="1" parent="VfmRdSo4ih5aXVGp20wE-99">
          <mxGeometry x="60" width="30" height="30" as="geometry" />
        </mxCell>
        <mxCell id="VfmRdSo4ih5aXVGp20wE-104" value="..." style="rounded=0;whiteSpace=wrap;html=1;sketch=1;fillColor=none;strokeColor=none;" vertex="1" parent="VfmRdSo4ih5aXVGp20wE-99">
          <mxGeometry x="120" width="30" height="30" as="geometry" />
        </mxCell>
        <mxCell id="VfmRdSo4ih5aXVGp20wE-105" value="" style="rounded=0;whiteSpace=wrap;html=1;sketch=1;fillColor=#d5e8d4;strokeColor=#82b366;" vertex="1" parent="VfmRdSo4ih5aXVGp20wE-99">
          <mxGeometry x="150" width="30" height="30" as="geometry" />
        </mxCell>
        <mxCell id="VfmRdSo4ih5aXVGp20wE-106" value="" style="endArrow=classic;html=1;edgeStyle=orthogonalEdgeStyle;curved=1;" edge="1" parent="1">
          <mxGeometry width="50" height="50" relative="1" as="geometry">
            <mxPoint x="380" y="384" as="sourcePoint" />
            <mxPoint x="390" y="394" as="targetPoint" />
            <Array as="points">
              <mxPoint x="360" y="384" />
              <mxPoint x="360" y="414" />
              <mxPoint x="390" y="414" />
            </Array>
          </mxGeometry>
        </mxCell>
        <mxCell id="VfmRdSo4ih5aXVGp20wE-107" value="" style="group" vertex="1" connectable="0" parent="1">
          <mxGeometry x="170" y="430" width="180" height="30" as="geometry" />
        </mxCell>
        <mxCell id="VfmRdSo4ih5aXVGp20wE-108" value="" style="rounded=0;whiteSpace=wrap;html=1;sketch=1;fillColor=#d5e8d4;strokeColor=#82b366;" vertex="1" parent="VfmRdSo4ih5aXVGp20wE-107">
          <mxGeometry width="30" height="30" as="geometry" />
        </mxCell>
        <mxCell id="VfmRdSo4ih5aXVGp20wE-109" value="" style="rounded=0;whiteSpace=wrap;html=1;sketch=1;fillColor=#d5e8d4;strokeColor=#82b366;" vertex="1" parent="VfmRdSo4ih5aXVGp20wE-107">
          <mxGeometry x="30" width="30" height="30" as="geometry" />
        </mxCell>
        <mxCell id="VfmRdSo4ih5aXVGp20wE-110" value="" style="rounded=0;whiteSpace=wrap;html=1;sketch=1;fillColor=#d5e8d4;strokeColor=#82b366;" vertex="1" parent="VfmRdSo4ih5aXVGp20wE-107">
          <mxGeometry x="90" width="30" height="30" as="geometry" />
        </mxCell>
        <mxCell id="VfmRdSo4ih5aXVGp20wE-111" value="" style="rounded=0;whiteSpace=wrap;html=1;sketch=1;fillColor=#d5e8d4;strokeColor=#82b366;" vertex="1" parent="VfmRdSo4ih5aXVGp20wE-107">
          <mxGeometry x="60" width="30" height="30" as="geometry" />
        </mxCell>
        <mxCell id="VfmRdSo4ih5aXVGp20wE-112" value="..." style="rounded=0;whiteSpace=wrap;html=1;sketch=1;fillColor=none;strokeColor=none;" vertex="1" parent="VfmRdSo4ih5aXVGp20wE-107">
          <mxGeometry x="120" width="30" height="30" as="geometry" />
        </mxCell>
        <mxCell id="VfmRdSo4ih5aXVGp20wE-113" value="" style="rounded=0;whiteSpace=wrap;html=1;sketch=1;fillColor=#d5e8d4;strokeColor=#82b366;" vertex="1" parent="VfmRdSo4ih5aXVGp20wE-107">
          <mxGeometry x="150" width="30" height="30" as="geometry" />
        </mxCell>
        <mxCell id="VfmRdSo4ih5aXVGp20wE-114" value="" style="endArrow=classic;html=1;edgeStyle=orthogonalEdgeStyle;curved=1;" edge="1" parent="1">
          <mxGeometry width="50" height="50" relative="1" as="geometry">
            <mxPoint x="380" y="430" as="sourcePoint" />
            <mxPoint x="390" y="440" as="targetPoint" />
            <Array as="points">
              <mxPoint x="360" y="430" />
              <mxPoint x="360" y="460" />
              <mxPoint x="390" y="460" />
            </Array>
          </mxGeometry>
        </mxCell>
        <mxCell id="VfmRdSo4ih5aXVGp20wE-115" value="active" style="text;html=1;align=center;verticalAlign=middle;resizable=0;points=[];autosize=1;strokeColor=none;fillColor=none;" vertex="1" parent="1">
          <mxGeometry x="120" y="345" width="50" height="20" as="geometry" />
        </mxCell>
        <mxCell id="VfmRdSo4ih5aXVGp20wE-116" value="doing" style="text;html=1;align=center;verticalAlign=middle;resizable=0;points=[];autosize=1;strokeColor=none;fillColor=none;" vertex="1" parent="1">
          <mxGeometry x="125" y="389" width="40" height="20" as="geometry" />
        </mxCell>
        <mxCell id="VfmRdSo4ih5aXVGp20wE-117" value="calclate" style="text;html=1;align=center;verticalAlign=middle;resizable=0;points=[];autosize=1;strokeColor=none;fillColor=none;" vertex="1" parent="1">
          <mxGeometry x="115" y="435" width="60" height="20" as="geometry" />
        </mxCell>
        <mxCell id="VfmRdSo4ih5aXVGp20wE-118" value="后测" style="rounded=0;whiteSpace=wrap;html=1;sketch=1;fillColor=none;" vertex="1" parent="1">
          <mxGeometry x="75" y="340" width="45" height="120" as="geometry" />
        </mxCell>
        <mxCell id="VfmRdSo4ih5aXVGp20wE-122" style="edgeStyle=orthogonalEdgeStyle;shape=flexArrow;curved=1;orthogonalLoop=1;jettySize=auto;html=1;exitX=1;exitY=0.5;exitDx=0;exitDy=0;strokeColor=default;entryX=0;entryY=0.5;entryDx=0;entryDy=0;" edge="1" parent="1" source="VfmRdSo4ih5aXVGp20wE-119" target="VfmRdSo4ih5aXVGp20wE-123">
          <mxGeometry relative="1" as="geometry">
            <mxPoint x="520" y="263" as="targetPoint" />
          </mxGeometry>
        </mxCell>
        <mxCell id="VfmRdSo4ih5aXVGp20wE-119" value="cron&lt;br&gt;3分钟" style="rounded=0;whiteSpace=wrap;html=1;sketch=1;strokeColor=default;fillColor=none;" vertex="1" parent="1">
          <mxGeometry x="430" y="67.5" width="50" height="390" as="geometry" />
        </mxCell>
        <mxCell id="VfmRdSo4ih5aXVGp20wE-121" style="edgeStyle=orthogonalEdgeStyle;curved=1;orthogonalLoop=1;jettySize=auto;html=1;exitX=1;exitY=0.5;exitDx=0;exitDy=0;entryX=0;entryY=0.5;entryDx=0;entryDy=0;strokeColor=default;shape=flexArrow;" edge="1" parent="1" source="VfmRdSo4ih5aXVGp20wE-120" target="VfmRdSo4ih5aXVGp20wE-119">
          <mxGeometry relative="1" as="geometry" />
        </mxCell>
        <mxCell id="VfmRdSo4ih5aXVGp20wE-120" value="" style="rounded=0;whiteSpace=wrap;html=1;sketch=1;strokeColor=default;fillColor=none;dashed=1;" vertex="1" parent="1">
          <mxGeometry x="60" y="55" width="340" height="415" as="geometry" />
        </mxCell>
        <mxCell id="VfmRdSo4ih5aXVGp20wE-128" value="" style="group" vertex="1" connectable="0" parent="1">
          <mxGeometry x="520" y="196.25" width="100" height="132.5" as="geometry" />
        </mxCell>
        <mxCell id="VfmRdSo4ih5aXVGp20wE-123" value="" style="rounded=0;whiteSpace=wrap;html=1;dashed=1;sketch=1;strokeColor=default;fillColor=none;" vertex="1" parent="VfmRdSo4ih5aXVGp20wE-128">
          <mxGeometry width="100" height="132.5" as="geometry" />
        </mxCell>
        <mxCell id="VfmRdSo4ih5aXVGp20wE-126" value="ElasticSearch" style="rounded=0;whiteSpace=wrap;html=1;sketch=1;strokeColor=default;fillColor=none;" vertex="1" parent="VfmRdSo4ih5aXVGp20wE-128">
          <mxGeometry x="12.5" y="20" width="75" height="42.5" as="geometry" />
        </mxCell>
        <mxCell id="VfmRdSo4ih5aXVGp20wE-127" value="MySQL" style="rounded=0;whiteSpace=wrap;html=1;sketch=1;strokeColor=default;fillColor=none;" vertex="1" parent="VfmRdSo4ih5aXVGp20wE-128">
          <mxGeometry x="12.5" y="70" width="75" height="42.5" as="geometry" />
        </mxCell>
      </root>
    </mxGraphModel>
  </diagram>
</mxfile>
